#tb 0: 1/10
#media_type 0: video
#codec_id 0: rawvideo
#dimensions 0: 320x240
#sar 0: 1/1
0,          0,          0,        1,   115200, 0xeba70ff3
0,          1,          1,        1,   115200, 0xeba70ff3
0,          3,          3,        1,   115200, 0xeba70ff3
0,          4,          4,        1,   115200, 0xeba70ff3
0,          6,          6,        1,   115200, 0xeba70ff3
0,          7,          7,        1,   115200, 0xeba70ff3
0,          9,          9,        1,   115200, 0xeba70ff3
0,         10,         10,        1,   115200, 0x1eb2b02b
0,         12,         12,        1,   115200, 0x1eb2b02b
0,         13,         13,        1,   115200, 0x1eb2b02b
0,         15,         15,        1,   115200, 0x1eb2b02b
0,         16,         16,        1,   115200, 0x1eb2b02b
0,         18,         18,        1,   115200, 0x1eb2b02b
0,         19,         19,        1,   115200, 0x1eb2b02b
0,         20,         20,        1,   115200, 0xa445b7ae
0,         22,         22,        1,   115200, 0xa445b7ae
0,         23,         23,        1,   115200, 0xa445b7ae
0,         25,         25,        1,   115200, 0xa445b7ae
0,         26,         26,        1,   115200, 0xa445b7ae
0,         28,         28,        1,   115200, 0xa445b7ae
0,         29,         29,        1,   115200, 0xa445b7ae
0,         30,         30,        1,   115200, 0x5bbec1c6
0,         32,         32,        1,   115200, 0x5bbec1c6
0,         33,         33,        1,   115200, 0x5bbec1c6
0,         35,         35,        1,   115200, 0x5bbec1c6
0,         36,         36,        1,   115200, 0x5bbec1c6
0,         38,         38,        1,   115200, 0x5bbec1c6
0,         39,         39,        1,   115200, 0x5bbec1c6
0,         40,         40,        1,   115200, 0x2393489d
0,         42,         42,        1,   115200, 0x2393489d
0,         43,         43,        1,   115200, 0x2393489d
0,         45,         45,        1,   115200, 0x2393489d
0,         46,         46,        1,   115200, 0x2393489d
0,         48,         48,        1,   115200, 0x2393489d
0,         49,         49,        1,   115200, 0x2393489d
